<svg xmlns="http://www.w3.org/2000/svg" version="1.1" xmlns:xlink="http://www.w3.org/1999/xlink" xmlns:svgjs="http://svgjs.dev/svgjs" width="1500" height="1500" viewBox="0 0 1500 1500"><rect width="1500" height="1500" fill="#ffffff"></rect><g transform="matrix(0.6666666666666666,0,0,0.6666666666666666,248.19953991946045,149.06774193548387)"><svg viewBox="0 0 207 248" data-background-color="#ffffff" preserveAspectRatio="xMidYMid meet" height="1797" width="1500" xmlns="http://www.w3.org/2000/svg" xmlns:xlink="http://www.w3.org/1999/xlink"><g id="tight-bounds" transform="matrix(1,0,0,1,0.3726952366716887,0.4000000000000057)"><svg viewBox="0 0 206.25460952665662 247.2" height="247.2" width="206.25460952665662"><g><svg viewBox="0 0 395.52 474.0381037998752" height="247.2" width="206.25460952665662"><g transform="matrix(1,0,0,1,0,229.96133686153848)"><svg viewBox="0 0 395.52 244.07676693833676" height="244.07676693833676" width="395.52"><g id="textblocktransform"><svg viewBox="0 0 395.52 244.07676693833676" height="244.07676693833676" width="395.52" id="textblock"><g><svg viewBox="0 0 395.52 145.78461538461536" height="145.78461538461536" width="395.52"><g transform="matrix(1,0,0,1,0,0)"><svg width="395.52" viewBox="1.8 -35.5 124.79 46" height="145.78461538461536" data-palette-color="#1f55b3"><path d="M17.7 0L17.9-2.55Q16.7-1.05 14.88-0.25 13.05 0.55 11.2 0.55L11.2 0.55Q1.8 0.55 1.8-8.6L1.8-8.6 1.8-25.05 4.6-25.05 4.6-8.25Q4.6-5.05 6.38-3.5 8.15-1.95 11.2-1.95L11.2-1.95Q14.2-1.95 15.93-3.48 17.65-5 17.65-8.25L17.65-8.25 17.65-25.05 20.45-25.05 20.45 0 17.7 0ZM41.25 0L41.25-17.15Q41.25-20.2 39.47-21.58 37.7-22.95 34.9-22.95L34.9-22.95Q33.2-22.95 31.45-22.48 29.7-22 28.35-21.25L28.35-21.25 28.35 0 25.55 0 25.55-25.05 28.35-25.05 28.15-23.35Q29.35-24.4 31.2-24.93 33.05-25.45 35.05-25.45L35.05-25.45Q37.8-25.45 39.75-24.55L39.75-24.55Q41.75-23.65 42.87-21.85 44-20.05 44-17.3L44-17.3 44 0 41.25 0ZM52.95-32.15Q52.3-32.15 51.77-32.68 51.24-33.2 51.24-33.85L51.24-33.85Q51.24-34.5 51.74-35 52.24-35.5 52.95-35.5L52.95-35.5Q53.64-35.5 54.12-35.02 54.59-34.55 54.59-33.85L54.59-33.85Q54.59-33.15 54.09-32.65 53.59-32.15 52.95-32.15L52.95-32.15ZM51.49 0L51.49-25.05 54.3-25.05 54.3 0 51.49 0ZM62.49 10.5L62.49-25.05 65.29-25.05 65.04-22.5Q66.39-23.95 68.22-24.7 70.04-25.45 71.84-25.45L71.84-25.45Q76.49-25.45 78.92-22.75 81.34-20.05 81.34-15.75L81.34-15.75 81.34-8.8Q81.34-4.25 78.79-1.83 76.24 0.6 72.04 0.6L72.04 0.6Q69.89 0.6 68.24 0 66.59-0.6 65.29-2.1L65.29-2.1 65.29 9.4 62.49 10.5ZM78.54-15.95Q78.54-19.6 76.62-21.25 74.69-22.9 72.04-22.9L72.04-22.9Q69.34-22.9 67.39-21.28 65.44-19.65 65.29-16.2L65.29-16.2 65.29-8.3Q65.29-5.05 67.14-3.5 68.99-1.95 72.04-1.95L72.04-1.95Q74.79-1.95 76.67-3.58 78.54-5.2 78.54-8.3L78.54-8.3 78.54-15.95ZM104.09 0Q98.69 0.55 96.29 0.55L96.29 0.55Q91.04 0.55 87.94-1.4 84.84-3.35 84.84-8.45L84.84-8.45 84.84-12.6Q84.84-17.55 88.29-19.25L88.29-19.25Q89.94-20.1 92.49-20.1L92.49-20.1Q94.84-20.1 97.24-19.33 99.64-18.55 101.29-17.3L101.29-17.3Q101.29-20.05 99.69-21.68 98.09-23.3 93.54-23.3L93.54-23.3 93.69-25.45Q98.49-25.45 100.77-23.93 103.04-22.4 103.57-20.3 104.09-18.2 104.09-14.9L104.09-14.9 104.09 0ZM101.29-15.15Q99.24-16.1 96.92-16.8 94.59-17.5 92.64-17.5L92.64-17.5Q87.59-17.5 87.59-12.45L87.59-12.45 87.59-8.1Q87.59-4.85 89.84-3.38 92.09-1.9 96.24-1.9L96.24-1.9Q98.39-1.9 101.29-2.3L101.29-2.3 101.29-15.15ZM118.89 8.35Q122.24 7.1 122.24 3.15L122.24 3.15 122.24-2.45Q121.29-0.85 119.39-0.13 117.49 0.6 115.29 0.6L115.29 0.6Q110.89 0.6 108.51-1.78 106.14-4.15 106.14-8.8L106.14-8.8 106.14-25.05 108.84-25.05 108.84-8.3Q108.84-5.1 110.59-3.53 112.34-1.95 115.29-1.95L115.29-1.95Q118.39-1.95 120.29-3.5 122.19-5.05 122.19-8.3L122.19-8.3 122.19-18.15Q122.19-20.55 122.34-21.73 122.49-22.9 123.26-23.93 124.04-24.95 125.84-25.5L125.84-25.5 126.59-23.6Q124.89-22.85 124.89-20.1L124.89-20.1 124.89 3.05Q124.89 6.1 123.69 7.85 122.49 9.6 119.64 10.5L119.64 10.5 118.89 8.35Z" opacity="1" transform="matrix(1,0,0,1,0,0)" fill="#000000" class="wordmark-text-0" data-fill-palette-color="primary" id="text-0"></path></svg></g></svg></g><g transform="matrix(1,0,0,1,69.21599999999998,180.20086424615383)"><svg viewBox="0 0 257.088 63.87590269218295" height="63.87590269218295" width="257.088"><g transform="matrix(1,0,0,1,0,0)"><svg width="257.088" viewBox="0.9 -26 154.13 38.3" height="63.87590269218295" data-palette-color="#000000"><path d="M7.2-0.4Q9.25 0.5 11.3 0.5L11.3 0.5Q14.25 0.5 16.6-1 18.95-2.5 20.25-5.15 21.55-7.8 21.55-11.2L21.55-11.2Q21.55-14.2 20.55-16.6 19.55-19 17.75-20.35 15.95-21.7 13.75-21.7L13.75-21.7Q11.8-21.7 10.08-20.75 8.35-19.8 7.25-18.15L7.25-18.15 7.05-18.15 7.05-21.7 6.65-21.7 1-19.75 1-19.4 3.95-18.3 3.95 10.9 0.9 11.3 0.9 11.7 11.7 11.7 11.7 11.35 7.2 10.8 7.2-0.4ZM11.65 0Q9.85 0 8.53-1.05 7.2-2.1 7.2-3.55L7.2-3.55 7.2-17.2Q7.8-18.6 9.05-19.4 10.3-20.2 11.85-20.2L11.85-20.2Q14.6-20.2 16.25-17.55 17.9-14.9 17.9-10.5L17.9-10.5Q17.9-7.5 17.1-5.1 16.3-2.7 14.88-1.35 13.45 0 11.65 0L11.65 0ZM30.1 0.35Q28.2 0.35 26.97-0.98 25.75-2.3 25.75-4.4L25.75-4.4Q25.75-6.9 28.02-8.4 30.3-9.9 35.75-11L35.75-11 35.75-15.55Q35.75-18.45 35.1-19.58 34.45-20.7 32.85-20.7L32.85-20.7Q31.3-20.7 30.35-19.88 29.4-19.05 29.4-17.65L29.4-17.65 29.45-16.3Q29.45-15.05 28.97-14.33 28.5-13.6 27.65-13.6L27.65-13.6Q26.9-13.6 26.42-14.1 25.95-14.6 25.95-15.4L25.95-15.4Q25.95-16.6 27.12-18.03 28.3-19.45 30.15-20.4L30.15-20.4Q32.4-21.65 34.8-21.65L34.8-21.65Q36.2-21.65 37.17-21.1 38.15-20.55 38.6-19.55L38.6-19.55Q38.85-18.9 38.92-17.95 39-17 39-14.3L39-14.3 39-4.75Q39-2.95 39.35-2.27 39.7-1.6 40.6-1.6L40.6-1.6Q41.95-1.6 42.6-2.55L42.6-2.55 42.8-2.45Q42.2-1.2 41.2-0.53 40.2 0.15 39.05 0.15L39.05 0.15Q37.75 0.15 36.9-0.63 36.05-1.4 35.95-2.7L35.95-2.7 35.8-2.75Q34.65-1.3 33.15-0.48 31.65 0.35 30.1 0.35L30.1 0.35ZM32.25-1.55Q33.3-1.55 34.22-2.02 35.15-2.5 35.75-3.4L35.75-3.4 35.75-10.45Q33.15-9.8 31.72-9.15 30.3-8.5 29.7-7.6 29.1-6.7 29.1-5.35L29.1-5.35Q29.1-3.6 29.95-2.58 30.8-1.55 32.25-1.55L32.25-1.55ZM54.85-3.65L49.55-18.65Q49.2-19.65 49.2-19.95L49.2-19.95Q49.2-20.35 49.72-20.53 50.25-20.7 52.05-20.8L52.05-20.8 52.05-21.2 42.4-21.2 42.4-20.8Q44.1-20.7 44.72-20.38 45.35-20.05 45.75-19.1L45.75-19.1 53.45 0.9 51.5 6.85Q50.85 8.8 50.3 9.63 49.75 10.45 49.1 10.45L49.1 10.45Q48.65 10.45 48.42 10.13 48.2 9.8 48 9.1L48 9.1Q47.75 8.2 47.35 7.7 46.95 7.2 46 7.2L46 7.2Q45 7.2 44.42 7.8 43.85 8.4 43.85 9.4L43.85 9.4Q43.85 10.65 44.8 11.48 45.75 12.3 47.15 12.3L47.15 12.3Q48.85 12.3 50.15 10.85L50.15 10.85Q51.2 9.85 52.05 7.2L52.05 7.2 60.4-17.35Q60.95-19.05 61.95-19.75 62.95-20.45 65.34-20.8L65.34-20.8 65.34-21.2 56.4-21.2 56.4-20.8Q58.4-20.5 59.15-20.13 59.9-19.75 59.9-18.95L59.9-18.95Q59.9-18.4 59.6-17.4L59.6-17.4 55.05-3.65 54.85-3.65ZM93.94-0.8L97.04-0.4 97.04 0 87.64 0 87.64-0.4 90.69-0.8 90.69-13.55Q90.69-15.5 90.59-16.45 90.49-17.4 90.24-18.05L90.24-18.05Q89.49-19.85 87.24-19.85L87.24-19.85Q84.84-19.85 83.19-17.65L83.19-17.65Q83.29-15.95 83.29-13.55L83.29-13.55 83.29-0.8 86.39-0.4 86.39 0 76.94 0 76.94-0.4 80.04-0.8 80.04-13.55Q80.04-15.5 79.94-16.45 79.84-17.4 79.59-18.05L79.59-18.05Q78.84-19.85 76.59-19.85L76.59-19.85Q74.24-19.85 72.64-17.8L72.64-17.8 72.64-0.8 75.69-0.4 75.69 0 66.39 0 66.39-0.4 69.39-0.8 69.39-18.3 66.44-19.4 66.44-19.75 72.09-21.7 72.49-21.7 72.49-18.35Q75.44-21.7 78.64-21.7L78.64-21.7Q81.54-21.7 82.74-19.25L82.74-19.25Q82.94-18.85 83.09-18.25L83.09-18.25Q86.14-21.7 89.29-21.7L89.29-21.7Q92.19-21.7 93.39-19.25L93.39-19.25Q93.74-18.6 93.84-17.43 93.94-16.25 93.94-13.55L93.94-13.55 93.94-0.8ZM116.19-5.1L116.64-5.7 116.84-5.6 116.64-5.05Q115.64-2.4 113.66-0.95 111.69 0.5 108.94 0.5L108.94 0.5Q106.24 0.5 104.14-0.9 102.04-2.3 100.86-4.8 99.69-7.3 99.69-10.55L99.69-10.55Q99.69-13.8 100.94-16.35 102.19-18.9 104.49-20.3 106.79-21.7 109.74-21.7L109.74-21.7Q113.24-21.7 115.11-19.63 116.99-17.55 117.04-13.6L117.04-13.6 116.74-13.35 103.24-13.35Q103.14-12.05 103.14-11.3L103.14-11.3Q103.14-6.75 104.99-4.38 106.84-2 110.14-2L110.14-2Q111.84-2 113.41-2.78 114.99-3.55 116.19-5.1L116.19-5.1ZM109.19-21.15Q106.84-21.15 105.29-19.2 103.74-17.25 103.29-13.9L103.29-13.9 112.99-14.25Q113.14-14.85 113.14-16.25L113.14-16.25Q113.14-18.95 112.11-20.05 111.09-21.15 109.19-21.15L109.19-21.15ZM138.14-0.8L141.14-0.4 141.14 0 131.84 0 131.84-0.4 134.89-0.8 134.89-13.55Q134.89-15.5 134.79-16.45 134.69-17.4 134.39-18.05L134.39-18.05Q133.99-18.9 133.06-19.38 132.14-19.85 130.94-19.85L130.94-19.85Q128.39-19.85 126.39-17.7L126.39-17.7 126.39-0.8 129.44-0.4 129.44 0 120.09 0 120.09-0.4 123.14-0.8 123.14-18.05 120.19-19.15 120.19-19.5 125.84-21.45 126.24-21.45 126.24-18.3Q129.44-21.7 132.94-21.7L132.94-21.7Q134.49-21.7 135.76-21.03 137.04-20.35 137.59-19.25L137.59-19.25Q137.94-18.6 138.04-17.48 138.14-16.35 138.14-13.55L138.14-13.55 138.14-0.8ZM148.63-26L143.13-20.7 143.24-20.45 145.59-20.45 145.59-4.45Q145.59-2.9 145.94-1.95 146.28-1 147.13-0.4L147.13-0.4Q148.38 0.5 149.99 0.5L149.99 0.5Q151.53 0.5 152.91-0.4 154.28-1.3 155.03-2.85L155.03-2.85 154.84-3Q153.94-2.1 153.19-1.7 152.44-1.3 151.63-1.3L151.63-1.3Q149.99-1.3 149.38-2.5L149.38-2.5Q148.84-3.35 148.84-5.1L148.84-5.1 148.84-20.4 154.24-20.4 154.53-21.2 148.84-21.2 148.84-25.95 148.63-26Z" opacity="1" transform="matrix(1,0,0,1,0,0)" fill="#000000" class="slogan-text-1" data-fill-palette-color="secondary" id="text-1"></path></svg></g></svg></g></svg></g></svg></g><g transform="matrix(1,0,0,1,99.987456,0)"><svg viewBox="0 0 195.545088 195.54508800000002" height="195.54508800000002" width="195.545088"><g><svg></svg></g><g id="icon-0"><svg viewBox="0 0 195.545088 195.54508800000002" height="195.54508800000002" width="195.545088"><g><path transform="scale(1.95545,1.95545)" d="M30 100c-16.569 0-30-13.431-30-30v-40c0-16.569 13.431-30 30-30h40c16.569 0 30 13.431 30 30v40c0 16.569-13.431 30-30 30z" fill="#000000" fill-rule="nonzero" stroke="none" stroke-width="1" stroke-linecap="butt" stroke-linejoin="miter" stroke-miterlimit="10" stroke-dasharray="" stroke-dashoffset="0" font-family="none" font-weight="none" font-size="none" text-anchor="none" style="mix-blend-mode: normal" data-fill-palette-color="accent"></path></g><g transform="matrix(1,0,0,1,39.10901760000001,50.5913925165658)"><svg viewBox="0 0 117.32705279999998 94.36230296686843" height="94.36230296686843" width="117.32705279999998"><g><svg xmlns="http://www.w3.org/2000/svg" xmlns:xlink="http://www.w3.org/1999/xlink" version="1.1" x="0" y="0" viewBox="0 9.786 100.00034525290005 80.42699999999999" enable-background="new 0 0 100 100" xml:space="preserve" id="dxe-0" width="117.32705279999998" height="94.36230296686843" class="icon-dxe-0" data-fill-palette-color="quaternary"><path d="M49.942 52.994L90.595 51.529C88.068 47.352 87.436 43.698 82.606 43.068 75.377 42.128 68.148 41.185 60.918 40.242L18.843 34.762C20.101 36.792 39.724 53.361 49.942 52.994" fill="#ffffff" data-fill-palette-color="quaternary"></path><path d="M0 9.786C4.391 17.043 26.615 32.858 32.953 33.672 50.283 35.903 67.61 38.132 84.939 40.36 81.546 34.753 80.759 31.01 74.627 29.401L47.91 22.378C31.94 18.182 15.97 13.984 0 9.786" fill="#ffffff" data-fill-palette-color="quaternary"></path><path d="M63.108 66.207L94.349 59.547C92.321 56.201 92.315 54.188 88.522 54.358 82.364 54.631 76.208 54.907 70.051 55.18 58.708 55.686 47.365 56.194 36.023 56.698 37.298 58.064 54.94 67.947 63.108 66.207" fill="#ffffff" data-fill-palette-color="quaternary"></path><path d="M87.682 90.213C93.407 86.494 94.944 82.492 98.201 76.406 101.852 69.582 99.458 68.562 95.38 61.81 94.963 61.122 89.538 62.042 88.927 62.714 88.182 63.532 88.679 68.169 88.633 69.21z" fill="#ffffff" data-fill-palette-color="quaternary"></path><path d="M86.35 63.447C82.555 64.256 77.746 63.638 76.778 67.676L72.658 84.887C81.904 82.678 86.028 71.582 86.35 63.447" fill="#ffffff" data-fill-palette-color="quaternary"></path><path d="M74.666 66.121C65.518 68.074 65.71 70.732 61.787 79.301 68.007 78.711 73.811 71.941 74.666 66.121" fill="#ffffff" data-fill-palette-color="quaternary"></path></svg></g></svg></g></svg></g></svg></g><g></g></svg></g><defs></defs></svg><rect width="206.25460952665662" height="247.2" fill="none" stroke="none" visibility="hidden"></rect></g></svg></g></svg>